# AST/ASF file generated using VICON BodyLanguage
# -----------------------------------------------
:version 1.10
:name VICON
:units
  mass 1.0
  length 0.45
  angle deg
:documentation
   .ast/.asf automatically generated from VICON data using
   VICON BodyBuilder and BodyLanguage model FoxedUp or BRILLIANT.MOD
:root
   order TX TY TZ RX RY RZ
   axis XYZ
   position 0 0 0  
   orientation 0 0 0 
:bonedata
  begin
     id 1 
     name lhipjoint
     direction 0.558404 -0.748506 0.357664 
     length 2.4234 
     axis 0 0 0  XYZ
  end
  begin
     id 2 
     name lfemur
     direction 0.34202 -0.939693 0  
     length 7.14567  
     axis 0 0 20  XYZ
    dof rx ry rz
    limits (-160.0 20.0)
           (-70.0 70.0)
           (-60.0 70.0)
  end
  begin
     id 3 
     name ltibia
     direction 0.34202 -0.939693 0   
     length 8.13956   
     axis 0 0 20   XYZ
    dof rx
    limits (-10.0 170.0)
  end
  begin
     id 4 
     name lfoot
     direction 0.0791314 -0.217412 0.972867   
     length 2.00134   
     axis -90 7.62852e-016 20   XYZ
    dof rx rz
    limits (-45.0 90.0)
           (-70.0 20.0)
  end
  begin
     id 5 
     name ltoes
     direction 1.53547e-011 -4.21922e-011 1   
     length 1.00735   
     axis -90 7.62852e-016 20   XYZ
    dof rx
    limits (-90.0 20.0)
  end
  begin
     id 6 
     name rhipjoint
     direction -0.496392 -0.78327 0.374276   
     length 2.31584  
     axis 0 0 0  XYZ 
  end
  begin
     id 7 
     name rfemur
     direction -0.34202 -0.939693 0   
     length 7.47417   
     axis 0 0 -20   XYZ
    dof rx ry rz
    limits (-160.0 20.0)
           (-70.0 70.0)
           (-70.0 60.0)
  end
  begin
     id 8 
     name rtibia
     direction -0.34202 -0.939693 0   
     length 7.69071   
     axis 0 0 -20   XYZ
    dof rx
    limits (-10.0 170.0)
 end
 begin
     id 9 
     name rfoot
     direction -0.103069 -0.28318 0.953512   
     length 2.16135  
     axis -90 -7.62852e-016 -20   XYZ
    dof rx rz
    limits (-45.0 90.0)
           (-20.0 70.0)
  end
  begin
     id 10 
     name rtoes
     direction -1.53581e-011 -4.21904e-011 1   
     length 1.07867   
     axis -90 -7.62852e-016 -20   XYZ
    dof rx
    limits (-90.0 20.0)
  end
  begin
     id 11 
     name lowerback
     direction -0.0258961 0.994776 -0.0987407   
     length 2.19412   
     axis 0 0 0   XYZ
    dof rx ry rz
    limits (-20.0 45.0)
           (-30.0 30.0)
           (-30.0 30.0)
  end
  begin
     id 12 
     name upperback
     direction 0.0402454 0.999185 0.00320666   
     length 2.18445   
     axis 0 0 0   XYZ
    dof rx ry rz
    limits (-20.0 45.0)
           (-30.0 30.0)
           (-30.0 30.0)
  end
  begin
     id 13 
     name thorax
     direction 0.0519376 0.997415 0.0496558   
     length 2.21487   
     axis 0 0 0   XYZ
    dof rx ry rz
    limits (-20.0 45.0)
           (-30.0 30.0)
           (-30.0 30.0)
  end
  begin
     id 14 
     name lowerneck
     direction -0.0921276 0.983211 0.157506   
     length 1.61201   
     axis 0 0 0   XYZ
    dof rx ry rz
    limits (-20.0 45.0)
           (-30.0 30.0)
           (-30.0 30.0)
  end
  begin
     id 15 
     name upperneck
     direction 0.0820814 0.98162 -0.172292   
     length 1.65275   
     axis 0 0 0   XYZ
    dof rx ry rz
    limits (-20.0 45.0)
           (-30.0 30.0)
           (-30.0 30.0)
  end
  begin
     id 16
     name head
     direction 0.0336554 0.996413 -0.0776455  
     length 1.66415  
     axis 0 0 0   XYZ
    dof rx ry rz
    limits (-20.0 45.0)
           (-30.0 30.0)
           (-30.0 30.0)
  end
  begin
     id 17 
     name lclavicle
     direction 0.94696 0.284418 -0.149576  
     length 3.41447  
     axis 0 0 0   XYZ
    dof ry rz
    limits (-20.0 10.0)
           (0.0 20.0)
  end
  begin
     id 18 
     name lhumerus
     direction 1 -0.000130264 -9.81312e-005   
     length 5.19964   
     axis 180 -30 -90   XYZ
    dof rx ry rz
    limits (-60.0 90.0)
           (-90.0 90.0)
           (-90.0 90.0)
  end
  begin
     id 19
     name lradius
     direction 1 -4.48961e-011 1.43854e-026   
     length 3.32189   
     axis 180 -30 -90   XYZ
    dof rx
    limits (-10.0 170.0)
  end
  begin
     id 20
     name lwrist
     direction 1 -4.48958e-011 3.1502e-026   
     length 1.66095   
     axis -1.97692e-014 90 90   XYZ
    dof ry
    limits (-180.0 0.0)
 end
  begin
     id 21 
     name lhand
     direction 1 -4.48927e-011 6.3004e-026   
     length 0.645616   
     axis -4.02019e-014 90 90   XYZ
    dof rx rz
    limits (-90.0 90.0)
           (-45.0 45.0)
  end
  begin
     id 22 
     name lfingers
     direction 1 -4.4904e-011 1.26008e-025   
     length 0.520512   
     axis -8.04039e-014 90 90   XYZ
    dof rx
    limits (0.0 90.0)
  end
  begin
     id 23
     name lthumb
     direction 0.707107 -6.34947e-011 0.707107   
     length 0.747354   
     axis -90 45 2.85299e-015   XYZ
    dof rx rz
    limits (-45.0 45.0)
           (-45.0 45.0)
  end
  begin
     id 24 
     name rclavicle
     direction -0.909391 0.383475 -0.161107   
     length 3.25176  
     axis 0 0 0   XYZ 
    dof ry rz
    limits (-10.0 20.0)
           (-20.0 0.0)
  end
  begin
     id 25 
     name rhumerus
     direction -1 -4.48965e-011 -1.81384e-027  
     length 5.6595   
     axis 180 30 90   XYZ
    dof rx ry rz
    limits (-90.0 60.0)
           (-90.0 90.0)
           (-90.0 90.0)
  end
  begin
     id 26 
     name rradius
     direction -1 -4.48996e-011 -8.09397e-027   
     length 3.37604   
     axis 180 30 90   XYZ
    dof rx
    limits (-10.0 170.0)
  end
  begin
     id 27 
     name rwrist
     direction -1 -4.48927e-011 -1.56669e-026   
     length 1.68802   
     axis 1.21142e-014 -90 -90   XYZ
    dof ry
    limits (-180.0 0.0)
  end
  begin
     id 28
     name rhand
     direction -1 -4.48912e-011 -3.13339e-026   
     length 0.824702   
     axis 1.99937e-014 -90 -90   XYZ
    dof rx rz
    limits (-90.0 90.0)
           (-45.0 45.0)
  end
  begin
     id 29
     name rfingers
     direction -1 -4.49011e-011 -6.26677e-026   
     length 0.664896   
     axis 3.99874e-014 -90 -90   XYZ
    dof rx
    limits (0.0 90.0)
  end
  begin
     id 30
     name rthumb
     direction -0.707107 -6.34931e-011 0.707107   
     length 0.954662   
     axis -90 -45 -2.85299e-015   XYZ
    dof rx rz
    limits (-45.0 45.0)
           (-45.0 45.0)
  end
:hierarchy
  begin
    root lhipjoint rhipjoint lowerback
    lhipjoint lfemur
    lfemur ltibia
    ltibia lfoot
    lfoot ltoes
    rhipjoint rfemur
    rfemur rtibia
    rtibia rfoot
    rfoot rtoes
    lowerback upperback
    upperback thorax
    thorax lowerneck lclavicle rclavicle
    lowerneck upperneck
    upperneck head
    lclavicle lhumerus
    lhumerus lradius
    lradius lwrist
    lwrist lhand lthumb
    lhand lfingers
    rclavicle rhumerus
    rhumerus rradius
    rradius rwrist
    rwrist rhand rthumb
    rhand rfingers
  end

#!OML:ASF F:\VICON\USERDATA\INSTALL\rory3\rory3.ASF
:FULLY-SPECIFIED
:DEGREES
347
root 11.3358 17.2954 12.2451 2.33138 -4.41769 -3.52732
lowerback 8.6394 -1.37467 -3.13316
upperback 0.658377 -1.91083 5.43709
thorax -3.87437 -0.861686 7.73461
lowerneck -12.64 -3.15808 -12.1785
upperneck 23.3456 -4.42651 11.0208
head 9.99257 -1.94494 5.44109
rclavicle 1.44119e-014 -4.45278e-014
rhumerus -35.563 -25.0218 -65.6708
rradius 31.0664
rwrist -16.6396
rhand -15.6639 17.6802
rfingers 7.12502
rthumb 10.5243 -12.0363
lclavicle 1.44119e-014 -4.45278e-014
lhumerus -23.8926 8.48822 77.0779
lradius 43.4168
lwrist -0.216591
lhand -6.31072 32.2213
lfingers 7.12502
lthumb 19.5336 61.26
rfemur -18.1505 6.39614 15.966
rtibia 39.4973
rfoot -19.3648 -0.717453
rtoes 11.9344
lfemur -3.56575 -7.34411 -11.7114
ltibia 42.5333
lfoot -17.6502 4.69737
ltoes -29.7728
348
root 11.2972 17.305 12.2991 2.39977 -4.39951 -3.83782
lowerback 8.59941 -1.30984 -2.67105
upperback 0.683418 -1.77862 5.46222
thorax -3.85965 -0.804116 7.47538
lowerneck -12.8977 -3.15628 -12.2489
upperneck 23.2335 -4.35816 10.9893
head 9.99485 -1.91417 5.44641
rclavicle 1.39149e-014 -4.29375e-014
rhumerus -35.2629 -23.8417 -66.3981
rradius 31.542
rwrist -17.0932
rhand -15.7288 17.5945
rfingers 7.12502
rthumb 10.4618 -12.1252
lclavicle 1.39149e-014 -4.29375e-014
lhumerus -24.0776 8.53737 77.2295
lradius 43.391
lwrist -0.155948
lhand -7.03379 30.7271
lfingers 7.12502
lthumb 18.8383 59.8349
rfemur -17.8396 6.53375 16.4662
rtibia 39.215
rfoot -19.3591 -0.639888
rtoes 12.3833
lfemur -4.26939 -7.02875 -11.0765
ltibia 43.8277
lfoot -16.6119 3.97287
ltoes -30.3548
349
root 11.2628 17.3126 12.3544 2.3716 -4.31853 -3.9021
lowerback 8.87578 -1.28212 -2.43457
upperback 0.589045 -1.7157 5.42817
thorax -4.13078 -0.766278 7.30974
lowerneck -13.1697 -3.18126 -12.3721
upperneck 23.3161 -4.33244 10.9736
head 10.0769 -1.90793 5.46889
rclavicle -1.25234e-014 1.66979e-014
rhumerus -35.0348 -23.0545 -66.7936
rradius 31.5618
rwrist -16.9378
rhand -15.4784 18.0878
rfingers 7.12502
rthumb 10.7033 -11.6195
lclavicle -1.25234e-014 1.66979e-014
lhumerus -24.5812 8.64096 77.3516
lradius 43.7456
lwrist -0.277945
lhand -7.16676 31.1675
lfingers 7.12502
lthumb 18.7104 60.2876
rfemur -17.4404 6.45778 16.6711
rtibia 38.9886
rfoot -19.57 -0.76427
rtoes 11.912
lfemur -4.98217 -6.76764 -10.7374
ltibia 45.2269
lfoot -15.4421 3.14009
ltoes -29.7509
350
root 11.2304 17.3184 12.4098 2.32546 -4.27247 -3.76809
lowerback 9.20358 -1.22244 -2.37143
upperback 0.42737 -1.62779 5.31275
thorax -4.50202 -0.709524 7.1581
lowerneck -12.9133 -3.21923 -12.4969
upperneck 23.0878 -4.35199 10.903
head 9.95067 -1.93982 5.45298
rclavicle -2.23633e-014 5.56597e-015
rhumerus -34.9016 -22.3968 -67.1824
rradius 31.6662
rwrist -17.098
rhand -15.5987 17.7449
rfingers 7.12502
rthumb 10.5872 -11.9685
lclavicle -2.23633e-014 5.56597e-015
lhumerus -25.1739 8.63622 77.4266
lradius 44.0779
lwrist -0.500956
lhand -7.03675 31.8786
lfingers 7.12502
lthumb 18.8355 60.9866
rfemur -17.0455 6.33196 16.6413
rtibia 38.7964
rfoot -19.6873 -0.924296
rtoes 11.9165
lfemur -5.81033 -6.53306 -10.6408
ltibia 46.708
lfoot -14.0964 2.33309
ltoes -28.2213
351
root 11.1983 17.3232 12.4614 2.3936 -4.22588 -3.5704
lowerback 9.27975 -1.17779 -2.40056
upperback 0.39349 -1.57575 5.17819
thorax -4.59046 -0.680671 7.02746
lowerneck -12.9272 -3.22093 -12.5895
upperneck 22.8463 -4.30531 10.8775
head 9.86331 -1.9257 5.45656
rclavicle 1.74931e-014 -2.3059e-014
rhumerus -34.5174 -21.4269 -67.9253
rradius 32.1299
rwrist -18.0884
rhand -15.8011 17.12
rfingers 7.12502
rthumb 10.392 -12.6032
lclavicle 1.74931e-014 -2.3059e-014
lhumerus -25.4829 8.74321 77.4516
lradius 44.1354
lwrist -0.650897
lhand -7.00058 31.2016
lfingers 7.12502
lthumb 18.8703 60.3063
rfemur -16.813 6.2052 16.5271
rtibia 38.6164
rfoot -19.735 -1.0084
rtoes 11.5556
lfemur -6.8487 -6.30607 -10.5974
ltibia 48.2412
lfoot -12.5821 1.61814
ltoes -27.0602
352
root 11.1635 17.324 12.5162 2.41639 -4.07582 -3.76836
lowerback 9.28684 -1.1753 -2.1072
upperback 0.551409 -1.54542 5.18999
thorax -4.43999 -0.679158 6.86123
lowerneck -13.5077 -3.22943 -12.6009
upperneck 22.7954 -4.22585 10.8327
head 9.94637 -1.87799 5.45077
rclavicle -2.00773e-014 -1.19271e-014
rhumerus -33.7249 -20.7867 -68.5749
rradius 32.1571
rwrist -18.3707
rhand -15.5965 17.2941
rfingers 7.12502
rthumb 10.5894 -12.4191
lclavicle -2.00773e-014 -1.19271e-014
lhumerus -25.5121 8.99179 77.5484
lradius 44.0964
lwrist -0.791086
lhand -6.90737 30.4249
lfingers 7.12502
lthumb 18.9599 59.5208
rfemur -16.4662 6.11608 16.8925
rtibia 38.4279
rfoot -20.0684 -1.01203
rtoes 10.563
lfemur -7.8417 -6.04072 -10.051
ltibia 49.8293
lfoot -10.8858 0.800286
ltoes -26.4632
353
root 11.1299 17.3274 12.5742 2.40056 -3.89329 -4.05051
lowerback 9.26645 -1.16236 -1.7326
upperback 0.718382 -1.49112 5.26239
thorax -4.26825 -0.666663 6.70932
lowerneck -13.7304 -3.21889 -12.7126
upperneck 22.4668 -4.11597 10.7753
head 9.8598 -1.83256 5.45117
rclavicle 9.24349e-015 2.22639e-014
rhumerus -32.9195 -20.504 -68.8969
rradius 31.761
rwrist -17.9125
rhand -15.3871 17.7434
rfingers 7.12502
rthumb 10.7913 -11.9594
lclavicle 9.24349e-015 2.22639e-014
lhumerus -25.6364 9.31492 77.7689
lradius 44.2141
lwrist -1.14847
lhand -6.64228 30.4658
lfingers 7.12502
lthumb 19.2148 59.5366
rfemur -16.0487 6.05675 17.3639
rtibia 38.2274
rfoot -20.3622 -0.995876
rtoes 10.4995
lfemur -8.8713 -5.75272 -9.39932
ltibia 51.4507
lfoot -8.99393 -0.097162
ltoes -24.6974
